<svg width="50" height="43" viewBox="0 0 50 43" fill="none" xmlns="http://www.w3.org/2000/svg">
<path d="M5.04285 35.4127V33.7686C5.04285 32.9086 5.44628 32.0992 6.07664 31.7197C10.3378 29.165 15.2042 27.8244 20.1714 27.8244C20.2471 27.8244 20.2975 27.8244 20.3731 27.8497C20.6253 26.0792 21.1296 24.3844 21.8608 22.8415C21.3061 22.7909 20.7513 22.7656 20.1714 22.7656C14.0696 22.7656 8.37114 24.4603 3.50478 27.3692C1.28593 28.6844 0 31.1633 0 33.7686V40.4715H23.3484C22.2894 38.9539 21.4573 37.2339 20.9026 35.4127H5.04285Z" fill="#4C5BD4"/>
<path d="M20.1707 20.2353C25.743 20.2353 30.2564 15.7076 30.2564 10.1176C30.2564 4.52765 25.743 0 20.1707 0C14.5983 0 10.085 4.52765 10.085 10.1176C10.085 15.7076 14.5983 20.2353 20.1707 20.2353ZM20.1707 5.05882C22.9442 5.05882 25.2135 7.33529 25.2135 10.1176C25.2135 12.9 22.9442 15.1765 20.1707 15.1765C17.3971 15.1765 15.1278 12.9 15.1278 10.1176C15.1278 7.33529 17.3971 5.05882 20.1707 5.05882Z" fill="#4C5BD4"/>
<path d="M47.2754 30.3521C47.2754 29.7957 47.1998 29.2898 47.1242 28.7586L49.9986 26.2039L47.4772 21.828L43.8211 23.0674C43.0142 22.3845 42.1065 21.8533 41.0979 21.4739L40.3415 17.7051H35.2987L34.5422 21.4739C33.5337 21.8533 32.626 22.3845 31.8191 23.0674L28.163 21.828L25.6416 26.2039L28.516 28.7586C28.4404 29.2898 28.3647 29.7957 28.3647 30.3521C28.3647 30.9086 28.4404 31.4145 28.516 31.9457L25.6416 34.5004L28.163 38.8763L31.8191 37.6368C32.626 38.3198 33.5337 38.851 34.5422 39.2304L35.2987 42.9992H40.3415L41.0979 39.2304C42.1065 38.851 43.0142 38.3198 43.8211 37.6368L47.4772 38.8763L49.9986 34.5004L47.1242 31.9457C47.1998 31.4145 47.2754 30.9086 47.2754 30.3521ZM37.8201 35.411C35.0465 35.411 32.7772 33.1345 32.7772 30.3521C32.7772 27.5698 35.0465 25.2933 37.8201 25.2933C40.5937 25.2933 42.8629 27.5698 42.8629 30.3521C42.8629 33.1345 40.5937 35.411 37.8201 35.411Z" fill="#4C5BD4"/>
</svg>
