<svg width="50" height="50" viewBox="0 0 50 50" fill="none" xmlns="http://www.w3.org/2000/svg">
<path d="M49.0234 48.0464H48.6328V19.7265C48.6328 19.1872 48.1955 18.75 47.6562 18.75H39.8438C39.3045 18.75 38.8672 19.1872 38.8672 19.7265V48.0464H36.1328V24.9999C36.1328 24.4606 35.6955 24.0234 35.1562 24.0234H27.3438C26.8045 24.0234 26.3672 24.4606 26.3672 24.9999V48.0464H23.6328V30.6533C23.6328 30.114 23.1955 29.6768 22.6562 29.6768H14.8438C14.3045 29.6768 13.8672 30.114 13.8672 30.6533V48.0464H11.1328V38.0856C11.1328 37.5463 10.6955 37.1091 10.1562 37.1091H2.34375C1.80449 37.1091 1.36719 37.5463 1.36719 38.0856V48.0464H0.976562C0.437305 48.0464 0 48.4836 0 49.023C0 49.5623 0.437305 49.9995 0.976562 49.9995H49.0234C49.5627 49.9995 50 49.5623 50 49.023C50 48.4836 49.5627 48.0464 49.0234 48.0464ZM3.32031 48.0464V39.0622H9.17969V48.0464H3.32031ZM15.8203 48.0464V31.6299H21.6797V48.0464H15.8203ZM28.3203 48.0464V25.9765H34.1797V48.0464H28.3203ZM40.8203 48.0464V20.7031H46.6797V48.0464H40.8203Z" fill="#4C5BD4"/>
<path d="M3.37175 31.9297C3.55495 32.1128 3.80329 32.2157 4.06228 32.2157C4.32126 32.2157 4.5696 32.1128 4.75281 31.9297L16.0219 20.6608L19.2561 23.895C19.4393 24.0781 19.6877 24.181 19.9466 24.181C20.2056 24.181 20.454 24.0781 20.6372 23.895L31.3418 13.1905L32.1386 13.9874C32.4179 14.2666 32.838 14.3502 33.2029 14.199C33.5677 14.0478 33.8057 13.6918 33.8057 13.2967V7.22654C33.8057 6.6872 33.3684 6.25 32.8292 6.25H26.7588C26.3637 6.25 26.0077 6.48798 25.8565 6.85282C25.7054 7.21776 25.789 7.63777 26.0682 7.91706L26.875 8.72369L19.9466 15.6521L16.7125 12.4179C16.331 12.0365 15.7129 12.0365 15.3313 12.4179L0.286011 27.463C-0.0953369 27.8443 -0.0953369 28.4627 0.286011 28.844L3.37175 31.9297ZM16.0219 14.4896L19.2561 17.7238C19.4393 17.9069 19.6877 18.0098 19.9466 18.0098C20.2056 18.0098 20.454 17.9069 20.6372 17.7238L28.9466 9.41439C29.1297 9.23129 29.2327 8.98286 29.2327 8.72388C29.2327 8.53814 29.1797 8.35787 29.0823 8.20319H31.8527V10.9771C31.4763 10.7457 30.9773 10.7931 30.6512 11.1191L19.9467 21.8234L16.7126 18.5892C16.3311 18.208 15.713 18.208 15.3314 18.5892L4.06228 29.8582L2.35769 28.1535L16.0219 14.4896Z" fill="#4C5BD4"/>
<path d="M42.1875 0C37.8797 0 34.375 3.50457 34.375 7.81236C34.375 12.1201 37.8797 15.6247 42.1875 15.6247C46.4953 15.6247 50 12.1201 50 7.81236C50 3.50457 46.4953 0 42.1875 0ZM42.1875 14.1126C40.6494 14.1126 39.2385 13.5583 38.1434 12.6394C38.635 11.4106 39.8277 10.5845 41.1794 10.5845H43.1956C44.5473 10.5845 45.74 11.4106 46.2316 12.6394C45.1365 13.5583 43.7256 14.1126 42.1875 14.1126ZM39.9194 6.80431C39.9194 5.55368 40.9368 4.53621 42.1875 4.53621C43.4382 4.53621 44.4556 5.55368 44.4556 6.80431C44.4556 8.05494 43.4382 9.07242 42.1875 9.07242C40.9368 9.07242 39.9194 8.05494 39.9194 6.80431ZM47.3291 11.4497C46.7837 10.5117 45.9363 9.78954 44.9332 9.39857C45.5737 8.72101 45.9677 7.80807 45.9677 6.80431C45.9677 4.71992 44.2719 3.02414 42.1875 3.02414C40.1031 3.02414 38.4073 4.71992 38.4073 6.80431C38.4073 7.80807 38.8013 8.72101 39.4418 9.39857C38.4387 9.78954 37.5913 10.5117 37.046 11.4497C36.3164 10.4216 35.8871 9.16616 35.8871 7.81236C35.8871 4.33838 38.7135 1.51207 42.1875 1.51207C45.6615 1.51207 48.4879 4.33838 48.4879 7.81236C48.4879 9.16616 48.0586 10.4216 47.3291 11.4497Z" fill="#4C5BD4"/>
</svg>
