<svg width="50" height="50" viewBox="0 0 50 50" fill="none" xmlns="http://www.w3.org/2000/svg">
<path d="M42.187 26.1842V24.9967V23.7935L45.187 21.1685C45.74 20.6811 46.1029 20.0139 46.2115 19.2848C46.3202 18.5557 46.1676 17.8116 45.7807 17.1842L42.0932 10.9342C41.8192 10.4596 41.4252 10.0654 40.9508 9.79114C40.4763 9.51689 39.9381 9.37223 39.3901 9.37167C39.0505 9.36907 38.7127 9.42184 38.3901 9.52792L34.5932 10.8092C33.9377 10.3736 33.2539 9.98206 32.5464 9.63729L31.7495 5.69979C31.6066 4.98043 31.2152 4.33423 30.6439 3.87433C30.0726 3.41442 29.3578 3.17012 28.6245 3.18417H21.312C20.5787 3.17012 19.8638 3.41442 19.2925 3.87433C18.7212 4.33423 18.3299 4.98043 18.187 5.69979L17.3901 9.63729C16.6775 9.98198 15.9885 10.3735 15.3276 10.8092L11.6089 9.46542C11.2828 9.38045 10.9451 9.3488 10.6089 9.37167C10.0608 9.37223 9.52262 9.51689 9.04817 9.79114C8.57372 10.0654 8.17973 10.4596 7.90573 10.9342L4.21823 17.1842C3.85352 17.8107 3.718 18.5446 3.83487 19.26C3.95174 19.9755 4.31373 20.6281 4.85885 21.106L7.81198 23.8092V26.1998L4.85885 28.8248C4.29834 29.306 3.92644 29.9703 3.80916 30.6997C3.69189 31.4291 3.83682 32.1765 4.21823 32.8092L7.90573 39.0592C8.17973 39.5338 8.57372 39.9279 9.04817 40.2022C9.52262 40.4764 10.0608 40.6211 10.6089 40.6217C10.9485 40.6243 11.2862 40.5715 11.6089 40.4654L15.4057 39.1842C16.0613 39.6198 16.7451 40.0113 17.4526 40.356L18.2495 44.2935C18.3924 45.0129 18.7837 45.6591 19.355 46.119C19.9263 46.5789 20.6412 46.8232 21.3745 46.8092H28.7495C29.4828 46.8232 30.1976 46.5789 30.7689 46.119C31.3402 45.6591 31.7316 45.0129 31.8745 44.2935L32.6714 40.356C33.384 40.0114 34.073 39.6199 34.7339 39.1842L38.5151 40.4654C38.8377 40.5715 39.1755 40.6243 39.5151 40.6217C40.0631 40.6211 40.6013 40.4764 41.0758 40.2022C41.5502 39.9279 41.9442 39.5338 42.2182 39.0592L45.7807 32.8092C46.1454 32.1826 46.281 31.4488 46.1641 30.7333C46.0472 30.0178 45.6852 29.3652 45.1401 28.8873L42.187 26.1842ZM39.3901 37.4967L34.0307 35.6842C32.7761 36.7468 31.3423 37.5775 29.7964 38.1373L28.687 43.7467H21.312L20.2026 38.1998C18.6689 37.6241 17.2428 36.7949 15.9839 35.7467L10.6089 37.4967L6.92135 31.2467L11.1714 27.4967C10.8824 25.8793 10.8824 24.2234 11.1714 22.606L6.92135 18.7467L10.6089 12.4967L15.9682 14.3092C17.2228 13.2465 18.6567 12.4158 20.2026 11.856L21.312 6.24667H28.687L29.7964 11.7935C31.3301 12.3692 32.7562 13.1985 34.0151 14.2467L39.3901 12.4967L43.0776 18.7467L38.8276 22.4967C39.1165 24.1141 39.1165 25.7699 38.8276 27.3873L43.0776 31.2467L39.3901 37.4967Z" fill="#4C5BD4" stroke="#4C5BD4" stroke-width="0.2"/>
<path d="M25 34.375C23.1458 34.375 21.3332 33.8252 19.7915 32.795C18.2498 31.7649 17.0482 30.3007 16.3386 28.5877C15.6291 26.8746 15.4434 24.9896 15.8051 23.171C16.1669 21.3525 17.0598 19.682 18.3709 18.3709C19.682 17.0598 21.3525 16.1669 23.171 15.8051C24.9896 15.4434 26.8746 15.6291 28.5877 16.3386C30.3007 17.0482 31.7649 18.2498 32.795 19.7915C33.8252 21.3332 34.375 23.1458 34.375 25C34.3875 26.2346 34.1536 27.4593 33.6869 28.6024C33.2202 29.7455 32.5301 30.784 31.6571 31.6571C30.784 32.5301 29.7455 33.2202 28.6024 33.6869C27.4593 34.1536 26.2346 34.3875 25 34.375ZM25 18.75C24.174 18.7308 23.3526 18.8793 22.5857 19.1866C21.8187 19.4938 21.122 19.9535 20.5377 20.5377C19.9535 21.122 19.4938 21.8187 19.1866 22.5857C18.8793 23.3526 18.7308 24.174 18.75 25C18.7308 25.826 18.8793 26.6474 19.1866 27.4144C19.4938 28.1813 19.9535 28.878 20.5377 29.4623C21.122 30.0465 21.8187 30.5062 22.5857 30.8135C23.3526 31.1207 24.174 31.2692 25 31.25C25.826 31.2692 26.6474 31.1207 27.4144 30.8135C28.1813 30.5062 28.878 30.0465 29.4623 29.4623C30.0465 28.878 30.5062 28.1813 30.8135 27.4144C31.1207 26.6474 31.2692 25.826 31.25 25C31.2692 24.174 31.1207 23.3526 30.8135 22.5857C30.5062 21.8187 30.0465 21.122 29.4623 20.5377C28.878 19.9535 28.1813 19.4938 27.4144 19.1866C26.6474 18.8793 25.826 18.7308 25 18.75Z" fill="#4C5BD4" stroke="#4C5BD4" stroke-width="0.2"/>
</svg>
