<svg width="50" height="50" viewBox="0 0 50 50" fill="none" xmlns="http://www.w3.org/2000/svg">
<path d="M35 29.6875C31.7969 29.6875 30.2567 31.25 25 31.25C19.7433 31.25 18.2143 29.6875 15 29.6875C6.71875 29.6875 0 35.5664 0 42.8125V45.3125C0 47.9004 2.39955 50 5.35714 50H44.6429C47.6004 50 50 47.9004 50 45.3125V42.8125C50 35.5664 43.2812 29.6875 35 29.6875ZM44.6429 45.3125H5.35714V42.8125C5.35714 38.1641 9.6875 34.375 15 34.375C16.6295 34.375 19.2746 35.9375 25 35.9375C30.7701 35.9375 33.3594 34.375 35 34.375C40.3125 34.375 44.6429 38.1641 44.6429 42.8125V45.3125ZM25 28.125C33.8728 28.125 41.0714 21.8262 41.0714 14.0625C41.0714 6.29883 33.8728 0 25 0C16.1272 0 8.92857 6.29883 8.92857 14.0625C8.92857 21.8262 16.1272 28.125 25 28.125ZM25 4.6875C30.904 4.6875 35.7143 8.89648 35.7143 14.0625C35.7143 19.2285 30.904 23.4375 25 23.4375C19.096 23.4375 14.2857 19.2285 14.2857 14.0625C14.2857 8.89648 19.096 4.6875 25 4.6875Z" fill="#4C5BD4" fill-opacity="0.76"/>
</svg>
