<svg width="98" height="98" viewBox="0 0 98 98" fill="none" xmlns="http://www.w3.org/2000/svg">
<path d="M49 0C21.9406 0 0 21.9406 0 49C0 76.0594 21.9406 98 49 98C76.0594 98 98 76.0594 98 49C98 21.9406 76.0594 0 49 0ZM70.1641 32.9984L47.1297 64.9359C46.8077 65.3853 46.3833 65.7514 45.8916 66.004C45.3999 66.2566 44.8551 66.3884 44.3023 66.3884C43.7496 66.3884 43.2047 66.2566 42.7131 66.004C42.2214 65.7514 41.7969 65.3853 41.475 64.9359L27.8359 46.0359C27.4203 45.4562 27.8359 44.6469 28.5469 44.6469H33.6766C34.7922 44.6469 35.8531 45.1828 36.5094 46.1016L44.2969 56.9078L61.4906 33.0641C62.1469 32.1562 63.1969 31.6094 64.3234 31.6094H69.4531C70.1641 31.6094 70.5797 32.4188 70.1641 32.9984Z" fill="#27AE60"/>
</svg>
