<svg width="50" height="50" viewBox="0 0 50 50" fill="none" xmlns="http://www.w3.org/2000/svg">
<path fill-rule="evenodd" clip-rule="evenodd" d="M13.2667 16.7356C13.2667 10.0483 18.477 4.54544 25 4.54544C31.523 4.54544 36.7333 10.0483 36.7333 16.7356C36.7333 20.9256 34.6878 24.6507 31.5554 26.8485C31.4264 26.9171 31.3054 26.9991 31.1936 27.0924C29.4006 28.2531 27.2805 28.9257 25 28.9257C18.477 28.9257 13.2667 23.4228 13.2667 16.7356ZM30.7955 32.3379C28.996 33.07 27.0407 33.4711 25 33.4711C22.9608 33.4711 21.0069 33.0706 19.2084 32.3395L17.8003 43.3974L23.9205 39.5674C24.5875 39.1499 25.4144 39.1499 26.0815 39.5674L32.2024 43.3978L30.7955 32.3379ZM15.2046 29.9683C11.4364 26.9145 9 22.1362 9 16.7356C9 7.4476 16.2063 0 25 0C33.7937 0 41 7.4476 41 16.7356C41 22.1342 38.5653 26.9111 34.7994 29.9651L37.0198 47.4202C37.1294 48.2823 36.7675 49.1354 36.0877 49.6174C35.4078 50.0994 34.5294 50.1257 33.8252 49.685L25.001 44.1629L16.1767 49.685C15.4726 50.1257 14.594 50.0994 13.9142 49.6173C13.2343 49.1353 12.8725 48.282 12.9823 47.4199L15.2046 29.9683Z" fill="#4C5BD4" fill-opacity="0.76"/>
</svg>
