<svg xmlns="http://www.w3.org/2000/svg" width="46" height="46" viewBox="0 0 46 46" fill="none">
  <g filter="url(#filter0_d_315_20091)">
    <rect x="10" y="10" width="26" height="26" rx="13" fill="#4C5BD4"/>
  </g>
  <path d="M22.8776 17.0084L23 17C23.2175 17 23.4276 17.0788 23.5915 17.2217C23.7554 17.3647 23.862 17.5621 23.8916 17.7776L23.9 17.9V22.1H28.1C28.3175 22.1 28.5276 22.1788 28.6915 22.3217C28.8554 22.4647 28.962 22.6621 28.9916 22.8776L29 23C29 23.2175 28.9212 23.4276 28.7783 23.5915C28.6353 23.7554 28.4379 23.862 28.2224 23.8916L28.1 23.9H23.9V28.1C23.9 28.3175 23.8212 28.5276 23.6783 28.6915C23.5353 28.8554 23.3379 28.962 23.1224 28.9916L23 29C22.7825 29 22.5724 28.9212 22.4085 28.7783C22.2446 28.6353 22.138 28.4379 22.1084 28.2224L22.1 28.1V23.9H17.9C17.6825 23.9 17.4724 23.8212 17.3085 23.6783C17.1446 23.5353 17.038 23.3379 17.0084 23.1224L17 23C17 22.7825 17.0788 22.5724 17.2217 22.4085C17.3647 22.2446 17.5621 22.138 17.7776 22.1084L17.9 22.1H22.1V17.9C22.1 17.6825 22.1788 17.4724 22.3217 17.3085C22.4647 17.1446 22.6621 17.038 22.8776 17.0084L23 17L22.8776 17.0084Z" fill="white"/>
  <defs>
    <filter id="filter0_d_315_20091" x="0" y="0" width="46" height="46" filterUnits="userSpaceOnUse" color-interpolation-filters="sRGB">
      <feFlood flood-opacity="0" result="BackgroundImageFix"/>
      <feColorMatrix in="SourceAlpha" type="matrix" values="0 0 0 0 0 0 0 0 0 0 0 0 0 0 0 0 0 0 127 0" result="hardAlpha"/>
      <feOffset/>
      <feGaussianBlur stdDeviation="5"/>
      <feColorMatrix type="matrix" values="0 0 0 0 0 0 0 0 0 0 0 0 0 0 0 0 0 0 0.1 0"/>
      <feBlend mode="normal" in2="BackgroundImageFix" result="effect1_dropShadow_315_20091"/>
      <feBlend mode="normal" in="SourceGraphic" in2="effect1_dropShadow_315_20091" result="shape"/>
    </filter>
  </defs>
</svg>