<svg width="50" height="50" viewBox="0 0 50 50" fill="none" xmlns="http://www.w3.org/2000/svg">
<path d="M25 9.86328C16.6536 9.86328 9.86328 16.6535 9.86328 25C9.86328 33.3465 16.6536 40.1367 25 40.1367C33.3464 40.1367 40.1367 33.3465 40.1367 25C40.1367 16.6535 33.3464 9.86328 25 9.86328ZM25 37.207C22.0199 37.207 19.2863 36.133 17.1646 34.3525C18.1171 31.9717 20.4278 30.3711 23.0469 30.3711H26.9531C29.5722 30.3711 31.8829 31.9717 32.8354 34.3525C30.7137 36.133 27.9801 37.207 25 37.207ZM20.6055 23.0469C20.6055 20.6237 22.5769 18.6523 25 18.6523C27.4231 18.6523 29.3945 20.6237 29.3945 23.0469C29.3945 25.47 27.4231 27.4414 25 27.4414C22.5769 27.4414 20.6055 25.47 20.6055 23.0469ZM34.9618 32.0476C33.9051 30.23 32.2633 28.8309 30.3198 28.0733C31.5608 26.7605 32.3242 24.9917 32.3242 23.0469C32.3242 19.0083 29.0386 15.7227 25 15.7227C20.9614 15.7227 17.6758 19.0083 17.6758 23.0469C17.6758 24.9917 18.4392 26.7605 19.6803 28.0733C17.7367 28.8309 16.0949 30.23 15.0383 32.0476C13.6247 30.0555 12.793 27.623 12.793 25C12.793 18.269 18.269 12.793 25 12.793C31.731 12.793 37.207 18.269 37.207 25C37.207 27.623 36.3753 30.0555 34.9618 32.0476Z" fill="#4C5BD4"/>
<path d="M48.5352 18.6523H45.0188C44.6568 17.5107 44.1965 16.4011 43.6422 15.3347L46.1304 12.8465C46.7024 12.2744 46.7024 11.347 46.1304 10.7749L39.225 3.86963C38.6529 3.29756 37.7255 3.29756 37.1534 3.86963L34.6652 6.35771C33.599 5.80361 32.4892 5.34307 31.3477 4.98115V1.46484C31.3477 0.655859 30.6918 0 29.8828 0H20.1172C19.3082 0 18.6523 0.655859 18.6523 1.46484V4.98115C17.5108 5.34307 16.401 5.80361 15.3347 6.35781L12.8465 3.86973C12.2744 3.29766 11.347 3.29766 10.7749 3.86973L3.86953 10.775C3.29746 11.3471 3.29746 12.2745 3.86953 12.8466L6.35771 15.3348C5.80342 16.4012 5.34307 17.5107 4.98105 18.6524H1.46484C0.655859 18.6524 0 19.3083 0 20.1173V29.8828C0 30.6918 0.655859 31.3477 1.46484 31.3477H4.98115C5.34316 32.4893 5.80352 33.5989 6.35781 34.6653L3.86963 37.1535C3.29756 37.7256 3.29756 38.653 3.86963 39.2251L10.775 46.1304C11.3471 46.7024 12.2745 46.7024 12.8466 46.1304L15.3348 43.6423C16.401 44.1965 17.5109 44.657 18.6524 45.0189V48.5352C18.6524 49.3441 19.3083 50 20.1173 50H29.8828C30.6918 50 31.3477 49.3441 31.3477 48.5352V45.0188C32.4892 44.6569 33.599 44.1964 34.6653 43.6422L37.1535 46.1303C37.7256 46.7023 38.653 46.7023 39.2251 46.1303L46.1305 39.225C46.7025 38.6529 46.7025 37.7255 46.1305 37.1534L43.6423 34.6652C44.1966 33.5988 44.6569 32.4893 45.0189 31.3476H48.5352C49.3441 31.3476 50 30.6917 50 29.8827V20.1172C50 19.3082 49.3441 18.6523 48.5352 18.6523ZM47.0703 28.418H43.9158C43.2475 28.418 42.6639 28.8704 42.4973 29.5177V29.5178C42.0775 31.1487 41.4273 32.7159 40.5648 34.1755V34.1756C40.2248 34.7511 40.3175 35.4838 40.7902 35.9565L43.0229 38.1893L38.1893 43.0229L35.9565 40.7902C35.4839 40.3176 34.7512 40.2249 34.1757 40.5648H34.1756C32.716 41.4271 31.1488 42.0773 29.5177 42.4973C28.8704 42.6639 28.418 43.2475 28.418 43.9158V47.0703H21.582V43.9159C21.582 43.2476 21.1296 42.664 20.4823 42.4974C18.8512 42.0774 17.284 41.4272 15.8244 40.5649H15.8243C15.2488 40.2249 14.5161 40.3177 14.0435 40.7903L11.8107 43.023L6.97705 38.1894L9.20977 35.9566C9.68242 35.484 9.7752 34.7513 9.43516 34.1757V34.1756C8.57266 32.716 7.92256 31.1488 7.50273 29.5179V29.5178C7.33613 28.8704 6.75254 28.418 6.08418 28.418H2.92969V21.582H6.08418C6.75254 21.582 7.33613 21.1296 7.50273 20.4823V20.4822C7.92246 18.8513 8.57266 17.2841 9.43516 15.8245V15.8244C9.7752 15.2489 9.68252 14.5162 9.20977 14.0435L6.97705 11.8107L11.8107 6.97705L14.0435 9.20977C14.5161 9.68242 15.2488 9.7751 15.8243 9.43516H15.8244C17.284 8.57285 18.8512 7.92266 20.4823 7.50273C21.1296 7.33604 21.582 6.75244 21.582 6.08408V2.92969H28.418V6.08408C28.418 6.75244 28.8704 7.33604 29.5177 7.50264C31.1488 7.92256 32.716 8.57275 34.1756 9.43506H34.1757C34.7512 9.7751 35.4839 9.68232 35.9565 9.20967L38.1893 6.97695L43.0229 11.8106L40.7902 14.0434C40.3176 14.516 40.2248 15.2487 40.5648 15.8243V15.8244C41.4273 17.284 42.0774 18.8512 42.4973 20.4821V20.4822C42.6639 21.1295 43.2475 21.5819 43.9158 21.5819H47.0703V28.418Z" fill="#4C5BD4"/>
</svg>
