<svg width="51" height="50" viewBox="0 0 51 50" fill="none" xmlns="http://www.w3.org/2000/svg">
<path fill-rule="evenodd" clip-rule="evenodd" d="M35.335 4.68219V16.4813H45.8362V4.68219H35.335ZM31.1679 4.40126C31.1679 1.97051 32.9216 0 35.085 0H46.0862C48.2496 0 50.0034 1.97051 50.0034 4.40126V16.7622C50.0034 19.193 48.2496 21.1635 46.0862 21.1635H35.085C32.9216 21.1635 31.1679 19.193 31.1679 16.7622V12.9215H29.583C28.6767 12.9215 27.8076 13.326 27.1667 14.046C26.5259 14.766 26.1659 15.7426 26.1659 16.7609V33.2422C26.1659 34.2604 26.5259 35.237 27.1667 35.957C27.8076 36.677 28.6767 37.0816 29.583 37.0816H31.1679V33.2368C31.1679 30.806 32.9216 28.8355 35.085 28.8355H46.0862C48.2496 28.8355 50.0034 30.806 50.0034 33.2368V45.5978C50.0034 48.0285 48.2496 49.999 46.0862 49.999H35.085C32.9216 49.999 31.1679 48.0285 31.1679 45.5978V41.7637H29.583C27.5715 41.7637 25.6424 40.8659 24.2201 39.2678C22.7978 37.6697 21.9988 35.5022 21.9988 33.2422V27.3412H17.002V30.1562C17.002 32.5869 15.2482 34.5574 13.0848 34.5574H3.91712C1.75375 34.5574 0 32.5869 0 30.1562V19.8554C0 17.4246 1.75375 15.4541 3.91712 15.4541H13.0848C15.2482 15.4541 17.002 17.4246 17.002 19.8554V22.659H21.9988V16.7609C21.9988 14.5008 22.7978 12.3333 24.2201 10.7352C25.6424 9.13709 27.5715 8.23928 29.583 8.23928H31.1679V4.40126ZM4.16715 20.1363V29.8752H12.8348V25.1656C12.8314 25.1109 12.8297 25.0557 12.8297 25.0001C12.8297 24.9445 12.8314 24.8893 12.8348 24.8346V20.1363H4.16715ZM35.335 45.3168V33.5177H45.8362V45.3168H35.335Z" fill="#4C5BD4" fill-opacity="0.76"/>
</svg>
