<svg width="50" height="50" viewBox="0 0 50 50" fill="none" xmlns="http://www.w3.org/2000/svg">
<path d="M19.2383 6.05469H13.3789C12.5699 6.05469 11.9141 6.71055 11.9141 7.51953V13.3789C11.9141 14.1879 12.5699 14.8438 13.3789 14.8438H19.2383C20.0473 14.8438 20.7031 14.1879 20.7031 13.3789V7.51953C20.7031 6.71055 20.0473 6.05469 19.2383 6.05469ZM17.7734 11.9141H14.8438V8.98438H17.7734V11.9141Z" fill="#4C5BD4"/>
<path d="M25.0977 14.8438H30.957C31.766 14.8438 32.4219 14.1879 32.4219 13.3789C32.4219 12.5699 31.766 11.9141 30.957 11.9141H25.0977C24.2887 11.9141 23.6328 12.5699 23.6328 13.3789C23.6328 14.1879 24.2887 14.8438 25.0977 14.8438Z" fill="#4C5BD4"/>
<path d="M25.0977 8.98438H34.8633C35.6723 8.98438 36.3281 8.32852 36.3281 7.51953C36.3281 6.71055 35.6723 6.05469 34.8633 6.05469H25.0977C24.2887 6.05469 23.6328 6.71055 23.6328 7.51953C23.6328 8.32852 24.2887 8.98438 25.0977 8.98438Z" fill="#4C5BD4"/>
<path d="M19.2383 17.7734H13.3789C12.5699 17.7734 11.9141 18.4293 11.9141 19.2383V25.0977C11.9141 25.9066 12.5699 26.5625 13.3789 26.5625H19.2383C20.0473 26.5625 20.7031 25.9066 20.7031 25.0977V19.2383C20.7031 18.4293 20.0473 17.7734 19.2383 17.7734ZM17.7734 23.6328H14.8438V20.7031H17.7734V23.6328Z" fill="#4C5BD4"/>
<path d="M25.0977 20.7031H34.8633C35.6723 20.7031 36.3281 20.0473 36.3281 19.2383C36.3281 18.4293 35.6723 17.7734 34.8633 17.7734H25.0977C24.2887 17.7734 23.6328 18.4293 23.6328 19.2383C23.6328 20.0473 24.2887 20.7031 25.0977 20.7031Z" fill="#4C5BD4"/>
<path d="M19.2383 29.4922H13.3789C12.5699 29.4922 11.9141 30.148 11.9141 30.957V36.8164C11.9141 37.6254 12.5699 38.2812 13.3789 38.2812H19.2383C20.0473 38.2812 20.7031 37.6254 20.7031 36.8164V30.957C20.7031 30.148 20.0473 29.4922 19.2383 29.4922ZM17.7734 35.3516H14.8438V32.4219H17.7734V35.3516Z" fill="#4C5BD4"/>
<path d="M38.6861 30.9266C38.1284 30.3689 37.2199 30.3176 36.6366 30.8484C36.0138 31.4152 35.9966 32.3803 36.5853 32.9689L38.6569 35.0405C39.229 35.6126 40.1564 35.6126 40.7285 35.0405L44.8717 30.8973C45.4604 30.3086 45.4433 29.3436 44.8204 28.7768C44.237 28.2459 43.3285 28.2973 42.7708 28.855L39.6928 31.9332L38.6861 30.9266Z" fill="#4C5BD4"/>
<path d="M49.0495 23.7261L42.1875 21.1528V1.46484C42.1875 0.655859 41.5316 0 40.7227 0H7.51953C6.71055 0 6.05469 0.655859 6.05469 1.46484V5.85938H1.46484C0.655859 5.85938 0 6.51523 0 7.32422V48.5352C0 49.3441 0.655859 50 1.46484 50H34.668C35.477 50 36.1328 49.3441 36.1328 48.5352V44.1406H38.3115C38.9161 44.4811 39.5494 44.7769 40.2083 45.0239C40.3741 45.0861 40.5483 45.1172 40.7227 45.1172C40.897 45.1172 41.0712 45.0861 41.237 45.0239C43.8232 44.0541 46.0219 42.3415 47.5951 40.0712C49.1684 37.801 50 35.141 50 32.3789V25.0977C50 24.4871 49.6213 23.9404 49.0495 23.7261ZM33.2031 47.0703H2.92969V8.78906H6.05469V42.6758C6.05469 43.4848 6.71055 44.1406 7.51953 44.1406H33.2031V47.0703ZM8.98438 41.2109V2.92969H39.2578V21.1528L32.6445 23.6328H25.0977C24.2887 23.6328 23.6328 24.2887 23.6328 25.0977C23.6328 25.9066 24.2887 26.5625 25.0977 26.5625H31.4453V29.4922H25.0977C24.2887 29.4922 23.6328 30.148 23.6328 30.957C23.6328 31.766 24.2887 32.4219 25.0977 32.4219H31.4461C31.4492 33.4164 31.5606 34.3974 31.7752 35.3516H25.0977C24.2887 35.3516 23.6328 36.0074 23.6328 36.8164C23.6328 37.6254 24.2887 38.2812 25.0977 38.2812H32.802C33.1032 38.8996 33.4528 39.498 33.8502 40.0712C34.1258 40.4689 34.4217 40.8484 34.7344 41.2109H8.98438ZM47.0703 32.3789C47.0703 36.5768 44.5415 40.4038 40.7227 42.0722C36.9038 40.4038 34.375 36.5769 34.375 32.3789V26.1128L40.7227 23.7324L47.0703 26.1128V32.3789Z" fill="#4C5BD4"/>
</svg>
