<svg width="50" height="50" viewBox="0 0 50 50" fill="none" xmlns="http://www.w3.org/2000/svg">
<g clip-path="url(#clip0)">
<path d="M13.6719 37.3045C13.6719 34.6122 11.4814 32.4219 8.78906 32.4219C6.09668 32.4219 3.90625 34.6122 3.90625 37.3045C3.90625 39.9969 6.09668 42.1872 8.78906 42.1872C11.4814 42.1872 13.6719 39.997 13.6719 37.3045ZM8.78906 40.2342C7.17363 40.2342 5.85938 38.9199 5.85938 37.3045C5.85938 35.6892 7.17363 34.3749 8.78906 34.3749C10.4045 34.3749 11.7188 35.6892 11.7188 37.3045C11.7188 38.9199 10.4045 40.2342 8.78906 40.2342Z" fill="#4C5BD4" stroke="#777777" stroke-width="0.5"/>
<path d="M29.8828 37.3045C29.8828 34.6122 27.6924 32.4219 25 32.4219C22.3076 32.4219 20.1172 34.6122 20.1172 37.3045C20.1172 39.9969 22.3076 42.1872 25 42.1872C27.6924 42.1872 29.8828 39.997 29.8828 37.3045ZM25 40.2342C23.3846 40.2342 22.0703 38.9199 22.0703 37.3045C22.0703 35.6892 23.3846 34.3749 25 34.3749C26.6154 34.3749 27.9297 35.6892 27.9297 37.3045C27.9297 38.9199 26.6154 40.2342 25 40.2342Z" fill="#4C5BD4" stroke="#777777" stroke-width="0.5"/>
<path d="M46.0938 37.3045C46.0938 34.6122 43.9033 32.4219 41.2109 32.4219C38.5186 32.4219 36.3281 34.6122 36.3281 37.3045C36.3281 39.9969 38.5186 42.1872 41.2109 42.1872C43.9033 42.1872 46.0938 39.997 46.0938 37.3045ZM41.2109 40.2342C39.5955 40.2342 38.2812 38.9199 38.2812 37.3045C38.2812 35.6892 39.5955 34.3749 41.2109 34.3749C42.8264 34.3749 44.1406 35.6892 44.1406 37.3045C44.1406 38.9199 42.8264 40.2342 41.2109 40.2342Z" fill="#4C5BD4" stroke="#777777" stroke-width="0.5"/>
<path d="M43.1641 42.1875H39.2578C36.7738 42.1875 34.5955 43.5196 33.3984 45.5065C32.2014 43.5197 30.023 42.1875 27.5391 42.1875H22.4609C19.977 42.1875 17.7986 43.5196 16.6016 45.5065C15.4045 43.5197 13.2262 42.1875 10.7422 42.1875H6.83594C3.0666 42.1875 0 45.254 0 49.0232C0 49.5625 0.437207 49.9998 0.976562 49.9998H20.6055C21.1448 49.9998 21.582 49.5625 21.582 49.0232C21.582 48.484 21.1448 48.0467 20.6055 48.0467H17.6762C18.1299 45.8208 20.1029 44.1406 22.4609 44.1406H27.5391C29.8971 44.1406 31.87 45.8208 32.3238 48.0467H29.3945C28.8552 48.0467 28.418 48.484 28.418 49.0232C28.418 49.5625 28.8552 49.9998 29.3945 49.9998H49.0234C49.5628 49.9998 50 49.5625 50 49.0232C50 45.2541 46.9334 42.1875 43.1641 42.1875ZM2.05127 48.0467C2.50498 45.8208 4.47803 44.1406 6.83604 44.1406H10.7423C13.1003 44.1406 15.0732 45.8208 15.5271 48.0467H2.05127ZM34.4731 48.0467C34.9269 45.8208 36.8999 44.1406 39.2579 44.1406H43.1642C45.5222 44.1406 47.4951 45.8208 47.9489 48.0467H34.4731Z" fill="#4C5BD4" stroke="#777777" stroke-width="0.5"/>
<path d="M39.6484 22.4602V26.3664C39.6484 26.9056 40.0856 27.3429 40.625 27.3429H44.5312C45.0706 27.3429 45.5078 26.9056 45.5078 26.3664V22.4602C45.5078 21.1872 44.6913 20.1017 43.5547 19.6986V8.78876C43.5547 8.12716 42.9714 7.89924 42.9616 7.89064C42.96 7.88996 42.9583 7.88908 42.9566 7.8884L25.3967 0.0842261C25.1441 -0.0280754 24.856 -0.0280754 24.6034 0.0842261L7.02529 7.8965C6.67266 8.05314 6.44531 8.40284 6.44531 8.78876C6.44531 9.17459 6.67256 9.52439 7.0252 9.68112L14.2578 12.8956V18.6724C14.2578 19.0583 14.4852 19.408 14.8378 19.5648L24.6034 23.9045C24.7296 23.9606 24.8648 23.9886 25 23.9886C25.1352 23.9886 25.2704 23.9606 25.3966 23.9045L35.1622 19.5648C35.5148 19.4081 35.7422 19.0583 35.7422 18.6724V12.8956L41.6016 10.2915V19.6987C40.4649 20.1018 39.6484 21.1872 39.6484 22.4602ZM43.5547 25.3899H41.6016V22.4602C41.6016 21.9218 42.0396 21.4837 42.5781 21.4837C43.1166 21.4837 43.5547 21.9218 43.5547 22.4602V25.3899ZM25 2.04521L37.9763 7.81223H25C24.4606 7.81223 24.0234 8.24952 24.0234 8.78876C24.0234 9.328 24.4606 9.7653 25 9.7653H37.9767L25 15.5324L9.82627 8.78886L25 2.04521ZM33.7891 18.0376L25 21.9434L16.2109 18.0376V13.7635L24.6034 17.4934C24.7296 17.5494 24.8648 17.5775 25 17.5775C25.1352 17.5775 25.2704 17.5494 25.3966 17.4934L33.7891 13.7636V18.0376Z" fill="#4C5BD4" stroke="#777777" stroke-width="0.5"/>
<path d="M25 49.9999C25.5393 49.9999 25.9766 49.5627 25.9766 49.0234C25.9766 48.4841 25.5393 48.0469 25 48.0469C24.4607 48.0469 24.0234 48.4841 24.0234 49.0234C24.0234 49.5627 24.4607 49.9999 25 49.9999Z" fill="#4C5BD4" stroke="#777777" stroke-width="0.5"/>
</g>
<defs>
<clipPath id="clip0">
<rect width="50" height="50" fill="white"/>
</clipPath>
</defs>
</svg>
