<svg width="50" height="50" viewBox="0 0 50 50" fill="none" xmlns="http://www.w3.org/2000/svg">
<path fill-rule="evenodd" clip-rule="evenodd" d="M4.16661 9.37488C4.16661 6.49843 6.49843 4.16661 9.37488 4.16661C12.2513 4.16661 14.5831 6.49843 14.5831 9.37488C14.5831 12.2513 12.2513 14.5831 9.37488 14.5831C6.49843 14.5831 4.16661 12.2513 4.16661 9.37488ZM9.37488 0C4.19728 0 0 4.19728 0 9.37488C0 13.8359 3.11591 17.5692 7.29009 18.5171V18.7522C7.29009 19.8466 7.50564 20.9302 7.92444 21.9412C8.34323 22.9523 8.95707 23.8709 9.7309 24.6448C10.5047 25.4186 11.4234 26.0324 12.4345 26.4512C13.4455 26.8699 14.5291 27.0855 15.6235 27.0854L22.9157 27.0853L22.9154 31.4828C18.7411 32.4307 15.6251 36.164 15.6251 40.6251C15.6251 45.8027 19.8224 50 25 50C30.1776 50 34.3749 45.8027 34.3749 40.6251C34.3749 36.1631 31.2576 32.4291 27.082 31.4822L27.0823 27.0852L34.3733 27.0851C36.5833 27.085 38.7029 26.207 40.2656 24.6443C41.8284 23.0815 42.7063 20.9619 42.7063 18.7518V18.5179C46.8823 17.5714 50 13.8372 50 9.37488C50 4.19728 45.8027 0 40.6251 0C35.4475 0 31.2502 4.19728 31.2502 9.37488C31.2502 13.8357 34.3658 17.5689 38.5397 18.517V18.7518C38.5397 19.8569 38.1007 20.9166 37.3194 21.698C36.538 22.4794 35.4782 22.9184 34.3732 22.9184L25.1194 22.9186C25.0797 22.9164 25.0396 22.9152 24.9993 22.9152C24.9589 22.9152 24.9187 22.9164 24.8788 22.9186L15.6234 22.9188C15.0762 22.9188 14.5344 22.8111 14.0289 22.6017C13.5234 22.3923 13.064 22.0854 12.6771 21.6985C12.2902 21.3116 11.9833 20.8522 11.7739 20.3467C11.5645 19.8412 11.4567 19.2994 11.4567 18.7522V18.5178C15.6324 17.571 18.7498 13.837 18.7498 9.37488C18.7498 4.19728 14.5525 0 9.37488 0ZM40.6251 4.16661C37.7487 4.16661 35.4169 6.49843 35.4169 9.37488C35.4169 12.2513 37.7487 14.5831 40.6251 14.5831C43.5016 14.5831 45.8334 12.2513 45.8334 9.37488C45.8334 6.49843 43.5016 4.16661 40.6251 4.16661ZM25 35.4169C22.1236 35.4169 19.7917 37.7487 19.7917 40.6251C19.7917 43.5016 22.1236 45.8334 25 45.8334C27.8764 45.8334 30.2083 43.5016 30.2083 40.6251C30.2083 37.7487 27.8764 35.4169 25 35.4169Z" fill="#4C5BD4"/>
</svg>
