<svg width="50" height="50" viewBox="0 0 50 50" fill="none" xmlns="http://www.w3.org/2000/svg">
<path fill-rule="evenodd" clip-rule="evenodd" d="M41.8726 7.57211C41.0576 7.57211 40.3969 8.25199 40.3969 9.09066C40.3969 9.92933 41.0576 10.6092 41.8726 10.6092C42.6875 10.6092 43.3482 9.92933 43.3482 9.09066C43.3482 8.25199 42.6875 7.57211 41.8726 7.57211ZM35.8516 9.09066C35.8516 5.66863 38.5473 2.89453 41.8726 2.89453C45.1979 2.89453 47.8936 5.66863 47.8936 9.09066C47.8936 12.5127 45.1979 15.2868 41.8726 15.2868C38.5473 15.2868 35.8516 12.5127 35.8516 9.09066Z" fill="#4C5BD4" fill-opacity="0.76"/>
<path fill-rule="evenodd" clip-rule="evenodd" d="M41.8743 0C43.1294 0 44.1469 1.04711 44.1469 2.33879V5.2318C44.1469 6.52347 43.1294 7.57059 41.8743 7.57059C40.6191 7.57059 39.6016 6.52347 39.6016 5.2318V2.33879C39.6016 1.04711 40.6191 0 41.8743 0Z" fill="#4C5BD4" fill-opacity="0.76"/>
<path fill-rule="evenodd" clip-rule="evenodd" d="M34.215 4.53697C34.8426 3.41835 36.2326 3.03508 37.3196 3.68092L39.7542 5.12742C40.8412 5.77326 41.2136 7.20364 40.586 8.32227C39.9585 9.4409 38.5685 9.82416 37.4815 9.17832L35.0469 7.73182C33.9599 7.08598 33.5874 5.6556 34.215 4.53697Z" fill="#4C5BD4" fill-opacity="0.76"/>
<path fill-rule="evenodd" clip-rule="evenodd" d="M40.586 9.84947C41.2136 10.9681 40.8412 12.3985 39.7542 13.0443L37.3196 14.4908C36.2326 15.1367 34.8426 14.7534 34.215 13.6348C33.5874 12.5161 33.9599 11.0858 35.0469 10.4399L37.4815 8.99342C38.5685 8.34758 39.9585 8.73085 40.586 9.84947Z" fill="#4C5BD4" fill-opacity="0.76"/>
<path fill-rule="evenodd" clip-rule="evenodd" d="M41.8743 10.6094C43.1294 10.6094 44.1469 11.6565 44.1469 12.9482V15.8412C44.1469 17.1328 43.1294 18.18 41.8743 18.18C40.6191 18.18 39.6016 17.1328 39.6016 15.8412V12.9482C39.6016 11.6565 40.6191 10.6094 41.8743 10.6094Z" fill="#4C5BD4" fill-opacity="0.76"/>
<path fill-rule="evenodd" clip-rule="evenodd" d="M43.1408 9.84947C43.7684 8.73085 45.1583 8.34758 46.2454 8.99342L48.68 10.4399C49.767 11.0858 50.1394 12.5161 49.5118 13.6348C48.8842 14.7534 47.4943 15.1367 46.4073 14.4908L43.9727 13.0443C42.8857 12.3985 42.5132 10.9681 43.1408 9.84947Z" fill="#4C5BD4" fill-opacity="0.76"/>
<path fill-rule="evenodd" clip-rule="evenodd" d="M49.5118 4.53697C50.1394 5.6556 49.767 7.08598 48.68 7.73182L46.2454 9.17832C45.1583 9.82416 43.7684 9.4409 43.1408 8.32227C42.5132 7.20364 42.8857 5.77326 43.9727 5.12742L46.4073 3.68092C47.4943 3.03508 48.8842 3.41835 49.5118 4.53697Z" fill="#4C5BD4" fill-opacity="0.76"/>
<path fill-rule="evenodd" clip-rule="evenodd" d="M25.0001 36.5018C20.7929 36.5018 16.6597 37.6411 13.0158 39.8053C9.37192 41.9696 6.34563 45.0825 4.24095 48.8314C3.61305 49.9499 2.22299 50.3327 1.13616 49.6866C0.049326 49.0404 -0.32271 47.6099 0.30519 46.4915C2.8089 42.0318 6.40895 38.3286 10.7437 35.7541C15.0785 33.1795 19.9952 31.8242 25.0002 31.8242C30.0051 31.8243 34.9218 33.1797 39.2565 35.7544C43.5912 38.329 47.1912 42.0322 49.6948 46.492C50.3227 47.6104 49.9506 49.0409 48.8638 49.6871C47.777 50.3332 46.3869 49.9503 45.759 48.8319C43.6544 45.0829 40.6282 41.9699 36.9843 39.8056C33.3405 37.6413 29.2074 36.5018 25.0001 36.5018Z" fill="#4C5BD4" fill-opacity="0.76"/>
<path fill-rule="evenodd" clip-rule="evenodd" d="M26.7589 5.76684C24.4159 5.43196 22.0287 5.77632 19.8655 6.76119C17.7024 7.74607 15.8491 9.3324 14.5141 11.3418C13.179 13.3513 12.4151 15.7041 12.3084 18.1358C12.2016 20.5675 12.7561 22.9817 13.9095 25.1069C15.063 27.232 16.7697 28.984 18.8377 30.1656C20.9057 31.3473 23.253 31.9118 25.6157 31.7958C27.9784 31.6798 30.2629 30.8878 32.2121 29.5089C34.1614 28.13 35.6982 26.2188 36.6498 23.9902C37.1548 22.8077 38.4957 22.2703 39.6448 22.7899C40.7939 23.3096 41.3161 24.6895 40.8112 25.872C39.5194 28.8973 37.4331 31.4917 34.787 33.3636C32.1409 35.2355 29.0398 36.3106 25.8324 36.4681C22.625 36.6256 19.4385 35.8592 16.6312 34.2551C13.8238 32.651 11.507 30.2728 9.9412 27.3879C8.37538 24.5029 7.62263 21.2257 7.7676 17.9246C7.91258 14.6236 8.94952 11.4296 10.7618 8.70178C12.5742 5.97398 15.09 3.82053 18.0265 2.48357C20.963 1.14661 24.2037 0.67914 27.3842 1.13373C28.6274 1.31143 29.4953 2.49264 29.3226 3.77203C29.1499 5.05143 28.0021 5.94454 26.7589 5.76684Z" fill="#4C5BD4" fill-opacity="0.76"/>
</svg>
