<svg width="52" height="52" viewBox="0 0 52 52" fill="none" xmlns="http://www.w3.org/2000/svg">
<path d="M34.2635 18.7247C33.8553 18.7247 33.4825 18.4602 33.3451 18.0767C33.2097 17.6988 33.3253 17.2634 33.6318 17.0034C33.9516 16.7321 34.4226 16.6971 34.7789 16.9185C35.1204 17.1307 35.3003 17.5441 35.2215 17.9386C35.1316 18.3891 34.7233 18.7247 34.2635 18.7247V18.7247Z" fill="#4C5BD4" stroke="#777777" stroke-width="0.3"/>
<path d="M50.6266 25.232L45.1597 20.938C44.8656 20.707 44.4656 20.6643 44.1295 20.8277C43.7934 20.9912 43.5799 21.3322 43.5799 21.7061V22.7099H38.2264C38.0781 22.1581 37.8917 21.6156 37.6676 21.0843C37.458 20.5874 36.8852 20.3546 36.3883 20.564C35.8913 20.7735 35.6583 21.3463 35.868 21.8433C36.4232 23.1595 36.7045 24.5578 36.7045 25.9996C36.7045 28.8159 35.5921 31.4948 33.6588 33.4777V33.4362C33.6588 31.0357 32.1642 28.9778 30.0567 28.1442C31.2937 27.0318 32.0728 25.4196 32.0728 23.6289C32.0728 20.2805 29.3486 17.5562 26.0001 17.5562C22.6517 17.5562 19.9275 20.2805 19.9275 23.6289C19.9275 25.4195 20.7066 27.0317 21.9436 28.1441C19.8364 28.9777 18.342 31.0357 18.342 33.4362V33.4783C16.408 31.4956 15.2953 28.8165 15.2953 25.9996C15.2953 20.0974 20.0976 15.2954 26.0003 15.2954C27.4289 15.2954 28.8156 15.572 30.1217 16.1174C30.6199 16.3253 31.1914 16.0902 31.3992 15.5925C31.607 15.0948 31.372 14.5229 30.8744 14.315C30.3563 14.0987 29.8276 13.9182 29.2901 13.7737V8.42002H30.2938C30.6676 8.42002 31.0086 8.20664 31.172 7.87041C31.3355 7.53418 31.2926 7.13418 31.0618 6.84023L26.7679 1.37334C26.5829 1.1376 26.2997 1 26 1C25.7002 1 25.417 1.1376 25.232 1.37334L20.9379 6.84023C20.7071 7.13418 20.6642 7.53418 20.8277 7.87041C20.9911 8.20664 21.3321 8.42002 21.7059 8.42002H22.7096V13.776C18.3696 14.9453 14.945 18.3699 13.7758 22.7098H8.42001V21.706C8.42001 21.3321 8.20653 20.9911 7.8704 20.8276C7.53417 20.6643 7.13417 20.7069 6.84022 20.9379L1.37334 25.232C1.1376 25.4172 1 25.7003 1 26C1 26.2997 1.1376 26.5828 1.37334 26.768L6.84022 31.062C7.01561 31.1998 7.2288 31.2706 7.44354 31.2706C7.58876 31.2706 7.73475 31.2382 7.8704 31.1724C8.20653 31.0089 8.42001 30.6679 8.42001 30.294V29.2902H13.7783C14.5446 32.131 16.2888 34.6569 18.7574 36.3815C18.758 36.3819 18.7586 36.3823 18.7591 36.3828C19.9713 37.23 21.3047 37.8498 22.7096 38.2266V43.58H21.7059C21.3321 43.58 20.9911 43.7934 20.8277 44.1296C20.6642 44.4658 20.7071 44.8658 20.9379 45.1598L25.232 50.6267C25.4171 50.8624 25.7002 51 26 51C26.2997 51 26.5829 50.8624 26.7679 50.6267L31.062 45.1598C31.2928 44.8658 31.3357 44.4658 31.1722 44.1296C31.0088 43.7934 30.6678 43.58 30.294 43.58H29.2903V38.2269C30.6955 37.8501 32.0292 37.2302 33.2417 36.3828C33.2428 36.382 33.244 36.3812 33.2451 36.3805C35.7122 34.6556 37.4555 32.1301 38.2216 29.2903H43.58V30.2941C43.58 30.668 43.7935 31.009 44.1296 31.1725C44.2653 31.2384 44.4112 31.2707 44.5565 31.2707C44.7712 31.2707 44.9844 31.1999 45.1598 31.0621L50.6267 26.7681C50.8624 26.5829 51 26.2998 51 26.0001C51 25.7004 50.8623 25.4172 50.6266 25.232V25.232ZM23.7145 6.46729L26 3.55752L28.2854 6.46729C27.7591 6.48223 27.3371 6.91357 27.3371 7.44346V13.4116C26.8956 13.3654 26.4497 13.3423 26.0003 13.3423C25.5486 13.3423 25.1024 13.3661 24.6627 13.4125V7.44346C24.6628 6.91357 24.2407 6.48232 23.7145 6.46729V6.46729ZM7.44345 27.3371C6.91347 27.3371 6.48212 27.7592 6.46727 28.2855L3.55751 26L6.46727 23.7146C6.48212 24.2408 6.91347 24.6629 7.44345 24.6629H13.4124C13.3661 25.1022 13.3423 25.5481 13.3423 25.9996C13.3423 26.4489 13.3662 26.8953 13.4133 27.3371H7.44345ZM26.0002 19.5095C28.2717 19.5095 30.1198 21.3574 30.1198 23.629C30.1198 25.8831 28.2999 27.7201 26.0525 27.7481H25.948C23.7005 27.7201 21.8807 25.8831 21.8807 23.629C21.8807 21.3574 23.7288 19.5095 26.0002 19.5095ZM20.2952 33.4362C20.2952 31.3768 21.9703 29.7012 24.0293 29.7012H25.9392C25.9595 29.7014 25.9798 29.7015 26.0001 29.7015C26.0205 29.7015 26.0408 29.7014 26.0611 29.7012H27.9705C30.03 29.7012 31.7055 31.3768 31.7055 33.4362V35.0592C29.9994 36.1373 28.0375 36.7046 26.0002 36.7046C23.9629 36.7046 22.001 36.1372 20.295 35.0592V33.4362H20.2952ZM28.2854 45.5327L26 48.4425L23.7145 45.5327C24.2408 45.5178 24.6628 45.0864 24.6628 44.5565V38.5881C25.1047 38.6344 25.551 38.6577 26.0004 38.6577C26.4496 38.6577 26.8956 38.6344 27.3372 38.5882V44.5565C27.3371 45.0864 27.7592 45.5177 28.2854 45.5327V45.5327ZM45.5326 28.2855C45.5178 27.7592 45.0864 27.3371 44.5565 27.3371H38.5867C38.6338 26.8953 38.6577 26.4489 38.6577 25.9996C38.6577 25.5503 38.6345 25.1045 38.5884 24.6629H44.5566C45.0865 24.6629 45.5179 24.2408 45.5327 23.7146L48.4424 26L45.5326 28.2855Z" fill="#4C5BD4" stroke="#777777" stroke-width="0.3"/>
</svg>
