<svg width="30" height="30" viewBox="0 0 30 30" fill="none" xmlns="http://www.w3.org/2000/svg">
<path fill-rule="evenodd" clip-rule="evenodd" d="M13.0371 10.0322V12.6572H10.3125V15.9912H13.0371V24.376H16.377V15.9912H18.9902L19.4062 12.6572H16.377V10.3604C16.377 9.39941 16.6348 8.7373 17.9766 8.7373H19.6875V5.76074C19.3945 5.71973 18.375 5.62598 17.1914 5.62598C14.7246 5.62598 13.0371 7.17871 13.0371 10.0322Z" fill="white"/>
<path fill-rule="evenodd" clip-rule="evenodd" d="M0 15.001C0 6.71582 6.71484 0.000976562 15 0.000976562C23.2852 0.000976562 30 6.71582 30 15.001C30 23.2861 23.2852 30.001 15 30.001C6.71484 30.001 0 23.2861 0 15.001ZM15 28.2432C22.3125 28.2432 28.2422 22.3135 28.2422 15.001C28.2422 7.68848 22.3125 1.75879 15 1.75879C7.6875 1.75879 1.75781 7.68848 1.75781 15.001C1.75781 22.3135 7.6875 28.2432 15 28.2432Z" fill="white"/>
</svg>
