<svg width="781" height="223" viewBox="0 0 781 223" fill="none" xmlns="http://www.w3.org/2000/svg">
<path d="M374.974 140.279H353.318V108.035H328.281V140.279H306.625V61.1847H328.281V90.5069H353.318V61.1847H374.974V140.279Z" fill="white"/>
<path d="M432.798 140.279V140.495L430.07 132.434L430.125 132.651H428.652C426.87 135.5 424.379 137.664 421.179 139.143C417.979 140.621 414.288 141.361 410.105 141.361C403.341 141.361 398.068 139.395 394.286 135.464C390.541 131.533 388.668 126.014 388.668 118.909V78.9836H409.996V112.471C409.996 116.475 410.56 119.504 411.687 121.56C412.851 123.616 414.742 124.644 417.36 124.644C420.924 124.644 423.488 123.255 425.052 120.478C426.652 117.701 427.452 112.814 427.452 105.817V78.9836H448.889V86.233C450.671 85.2231 452.053 83.2575 453.035 80.3361C454.053 77.4147 454.562 73.9883 454.562 70.0571H475.127L475.945 71.2473C474.927 76.2966 473.745 80.2459 472.4 83.0952C471.054 85.9444 469.327 88.3789 467.218 90.3987C465.108 92.4184 462.526 94.0955 459.472 95.43C456.453 96.7644 452.926 97.7563 448.889 98.4055V140.279H432.798Z" fill="white"/>
<path d="M516.095 140.279V106.845C516.095 102.77 515.495 99.7039 514.295 97.6481C513.131 95.5562 511.24 94.5103 508.622 94.5103C505.022 94.5103 502.422 95.9349 500.822 98.7842C499.222 101.633 498.422 106.52 498.422 113.445V140.279H477.093V78.9836H493.185L495.858 86.5576H497.112C498.931 83.6722 501.44 81.5082 504.64 80.0656C507.877 78.6229 511.586 77.9016 515.768 77.9016C522.605 77.9016 527.914 79.8672 531.696 83.7985C535.514 87.7297 537.424 93.266 537.424 100.407V140.279H516.095Z" fill="white"/>
<path d="M608.011 78.9836V89.2085L599.556 92.2922C600.72 94.384 601.302 96.8185 601.302 99.5957C601.302 106.196 598.956 111.317 594.265 114.96C589.61 118.603 582.646 120.424 573.373 120.424C571.082 120.424 569.264 120.28 567.918 119.991C567.409 120.929 567.155 121.813 567.155 122.642C567.155 123.688 568.009 124.5 569.718 125.077C571.428 125.618 573.664 125.888 576.428 125.888H586.683C600.538 125.888 607.466 131.677 607.466 143.254C607.466 150.72 604.248 156.527 597.811 160.674C591.411 164.822 582.41 166.896 570.809 166.896C562.045 166.896 555.281 165.435 550.517 162.514C545.79 159.629 543.426 155.463 543.426 150.017C543.426 142.695 548.008 137.971 557.172 135.843C555.281 135.049 553.627 133.769 552.208 132.002C550.827 130.234 550.136 128.485 550.136 126.754C550.136 124.842 550.663 123.165 551.717 121.723C552.772 120.244 554.972 118.495 558.318 116.475C555.118 115.068 552.59 112.868 550.736 109.875C548.917 106.881 548.008 103.238 548.008 98.9465C548.008 92.2741 550.299 87.0986 554.881 83.4198C559.463 79.741 566.009 77.9016 574.519 77.9016C575.646 77.9016 577.592 78.0278 580.355 78.2803C583.119 78.5327 585.156 78.7672 586.465 78.9836H608.011ZM561.427 147.907C561.427 149.638 562.373 151.027 564.264 152.073C566.155 153.155 568.682 153.696 571.846 153.696C577.01 153.696 581.137 153.046 584.228 151.748C587.356 150.486 588.919 148.845 588.919 146.825C588.919 145.202 587.974 144.048 586.083 143.363C584.192 142.713 581.483 142.389 577.955 142.389H569.609C567.318 142.389 565.373 142.912 563.773 143.958C562.209 145.04 561.427 146.356 561.427 147.907ZM568.137 99.0547C568.137 105.33 570.337 108.468 574.737 108.468C576.773 108.468 578.337 107.693 579.428 106.142C580.555 104.591 581.119 102.265 581.119 99.1629C581.119 92.8151 578.992 89.6413 574.737 89.6413C570.337 89.6413 568.137 92.7791 568.137 99.0547Z" fill="white"/>
<path d="M711.603 140.279H689.947V108.035H664.91V140.279H643.254V61.1847H664.91V90.5069H689.947V61.1847H711.603V140.279Z" fill="white"/>
<path d="M765.717 140.279L761.626 132.164H761.19C758.317 135.698 755.39 138.115 752.408 139.413C749.426 140.712 745.571 141.361 740.843 141.361C735.025 141.361 730.443 139.63 727.097 136.167C723.751 132.705 722.079 127.836 722.079 121.56C722.079 115.032 724.37 110.181 728.952 107.007C733.534 103.797 740.171 101.994 748.862 101.597L759.172 101.273V100.407C759.172 95.3578 756.662 92.8332 751.644 92.8332C747.135 92.8332 741.407 94.348 734.461 97.3776L728.297 83.4198C735.498 79.741 744.589 77.9016 755.571 77.9016C763.499 77.9016 769.627 79.8492 773.954 83.7444C778.318 87.6396 780.5 93.0856 780.5 100.083V140.279H765.717ZM749.898 126.429C752.48 126.429 754.68 125.618 756.499 123.995C758.353 122.372 759.281 120.262 759.281 117.665V112.904L754.371 113.121C747.353 113.373 743.843 115.934 743.843 120.803C743.843 124.554 745.862 126.429 749.898 126.429ZM752.735 73.1408C750.226 71.5538 746.516 69.0653 741.607 65.675C736.734 62.2487 732.588 59.201 729.17 56.5321V55.396H752.626C754.517 57.9207 758.208 62.1224 763.699 68.0013L766.917 71.5719V73.1408H752.735Z" fill="white"/>
<path d="M125.438 0L169.6 16.7284L214.135 32.6576L232.056 72.2443L250.875 111.5L232.056 150.756L214.135 190.342L169.6 206.272L125.438 223L81.2749 206.272L36.7398 190.342L18.8195 150.756L0 111.5L18.8195 72.2443L36.7398 32.6576L81.2749 16.7284L125.438 0Z" fill="white"/>
<path d="M69.8472 26.7058L85.2384 21.2329H166.151L210.032 37.0936L217.825 54.2106L178.974 199.503L164.507 200.925H82.3115L40.7314 186.191L30.6577 163.33L69.8472 26.7058Z" fill="#4C5BD4"/>
<path d="M198.462 32.76L210.032 37.1155L217.846 54.2107L179.821 196.742L167.815 200.946H82.4204L102.926 127.602L152.52 95.7361L198.462 32.76Z" fill="#1B9564"/>
<path d="M161.498 174.593H132.515L144.199 126.466H104.067L82.6011 200.995L53.8846 190.762L92.0271 47.5021H124.426L111.04 95.977H152.539L172.85 23.5496L198.475 32.6866L161.498 174.593Z" fill="white"/>
</svg>
