<svg width="30" height="30" viewBox="0 0 30 30" fill="none" xmlns="http://www.w3.org/2000/svg">
<path fill-rule="evenodd" clip-rule="evenodd" d="M0 15.001C0 6.71582 6.71484 0.000976562 15 0.000976562C23.2852 0.000976562 30 6.71582 30 15.001C30 23.2861 23.2852 30.001 15 30.001C6.71484 30.001 0 23.2861 0 15.001ZM15 28.2432C22.3125 28.2432 28.2422 22.3135 28.2422 15.001C28.2422 7.68848 22.3125 1.75879 15 1.75879C7.6875 1.75879 1.75781 7.68848 1.75781 15.001C1.75781 22.3135 7.6875 28.2432 15 28.2432Z" fill="white"/>
<path fill-rule="evenodd" clip-rule="evenodd" d="M22.5605 8.74316C21.9277 9.12402 21.2246 9.3877 20.4805 9.54004C19.877 8.90137 19.0215 8.50293 18.084 8.50293C16.2676 8.50293 14.8027 9.97949 14.8027 11.7842C14.8027 12.042 14.8262 12.2939 14.8789 12.5342C12.1484 12.3994 9.73438 11.0928 8.11133 9.10059C7.83008 9.59277 7.66016 10.1553 7.66016 10.7588C7.66016 11.8955 8.24609 12.9033 9.11914 13.4893C8.5918 13.4775 8.07617 13.3252 7.63672 13.085V13.1201C7.63672 14.7139 8.77344 16.0381 10.2676 16.3428C9.99805 16.4131 9.71094 16.4482 9.40625 16.4482C9.19531 16.4482 8.98438 16.4365 8.78516 16.3896C9.21289 17.6904 10.4199 18.6455 11.8496 18.6748C10.7305 19.5479 9.3125 20.0752 7.77734 20.0752C7.50781 20.0752 7.25 20.0635 6.99219 20.0283C8.44531 20.9658 10.168 21.499 12.0254 21.499C18.0664 21.499 21.3652 16.4951 21.3652 12.1592C21.3652 12.0127 21.3594 11.8721 21.3535 11.7373C22.0039 11.2744 22.5547 10.7002 23 10.0322C22.4023 10.2959 21.7695 10.4658 21.1074 10.5479C21.7988 10.1494 22.3145 9.51074 22.5605 8.74316Z" fill="white"/>
</svg>
