<svg width="30" height="30" viewBox="0 0 30 30" fill="none" xmlns="http://www.w3.org/2000/svg">
<path fill-rule="evenodd" clip-rule="evenodd" d="M0 15.001C0 6.71582 6.71484 0.000976562 15 0.000976562C23.2852 0.000976562 30 6.71582 30 15.001C30 23.2861 23.2852 30.001 15 30.001C6.71484 30.001 0 23.2861 0 15.001ZM15 28.2432C22.3125 28.2432 28.2422 22.3135 28.2422 15.001C28.2422 7.68848 22.3125 1.75879 15 1.75879C7.6875 1.75879 1.75781 7.68848 1.75781 15.001C1.75781 22.3135 7.6875 28.2432 15 28.2432Z" fill="white"/>
<path fill-rule="evenodd" clip-rule="evenodd" d="M15 10.1553C15 10.1553 19.3242 10.1553 20.4082 10.4541C21 10.6182 21.4688 11.0811 21.627 11.6729C21.9258 12.7568 21.9141 15.0127 21.9141 15.0127C21.9141 15.0127 21.9141 17.2568 21.627 18.3408C21.4688 18.9326 21 19.4014 20.4082 19.5596C19.3301 19.8467 15 19.8467 15 19.8467C15 19.8467 10.6875 19.8467 9.5918 19.5479C9 19.3896 8.53125 18.9209 8.37305 18.3291C8.08594 17.2568 8.08594 15.001 8.08594 15.001C8.08594 15.001 8.08594 12.7568 8.37305 11.6729C8.53125 11.0811 9.01172 10.6006 9.5918 10.4424C10.6699 10.1553 15 10.1553 15 10.1553ZM17.2207 15.001L13.623 12.9268V17.0752L17.2207 15.001Z" fill="white"/>
</svg>
